<?xml version="1.0" encoding="UTF-8"?>
<svg version="1.1" xmlns="http://www.w3.org/2000/svg" width="1254" height="1254">
<path d="M0 0 C413.82 0 827.64 0 1254 0 C1254 413.82 1254 827.64 1254 1254 C840.18 1254 426.36 1254 0 1254 C0 840.18 0 426.36 0 0 Z " fill="#18CCD4" transform="translate(0,0)"/>
<path d="M0 0 C1.49010445 -0.00330433 2.98020801 -0.00703108 4.47031045 -0.01114148 C8.54820609 -0.02110502 12.62608701 -0.02486911 16.70399308 -0.02753079 C21.10919197 -0.03145073 25.5143794 -0.04102783 29.91957092 -0.04974365 C40.55004981 -0.06946082 51.18052958 -0.07956837 61.81102216 -0.08847144 C66.82614603 -0.09286225 71.84126886 -0.098227 76.85639191 -0.10346031 C93.54333654 -0.12046806 110.23028054 -0.13496004 126.91723251 -0.14220905 C131.24277497 -0.14411872 135.56831743 -0.14603908 139.89385986 -0.147995 C140.96885499 -0.14847874 142.04385012 -0.14896248 143.15142086 -0.14946087 C160.5478173 -0.1577531 177.9441448 -0.18307842 195.34051117 -0.21557567 C213.23012518 -0.24871992 231.11970425 -0.26666446 249.00934911 -0.26985329 C259.0418674 -0.27201161 269.07428516 -0.2806604 279.10677338 -0.30631447 C287.65450277 -0.32812236 296.20210721 -0.33602264 304.74986127 -0.32634769 C309.10289593 -0.32183198 313.45567332 -0.323528 317.80867195 -0.34310913 C335.30159204 -0.41740986 352.22452109 -0.30022315 369.27813721 4.14717102 C370.05078777 4.34141486 370.82343833 4.53565869 371.61950254 4.7357887 C393.06738374 10.15585151 411.52627819 20.80014657 428.27813721 35.14717102 C429.18177002 35.91674133 430.08540283 36.68631165 431.01641846 37.47920227 C437.51633507 43.18798104 443.07102561 49.24493856 448.27813721 56.14717102 C448.99485596 57.08689758 449.71157471 58.02662415 450.45001221 58.99482727 C460.56391339 72.89247518 468.7978376 88.52239971 473.27813721 105.14717102 C473.57075439 106.22998352 473.86337158 107.31279602 474.16485596 108.42842102 C477.46116148 121.67796127 478.64885218 134.83822435 478.59063721 148.45967102 C478.58914673 149.13182648 478.58765625 149.80398193 478.58612061 150.49650574 C478.54317111 161.31737424 477.80753167 171.61707389 475.27813721 182.14717102 C474.98809814 183.35631165 474.69805908 184.56545227 474.39923096 185.81123352 C464.69830002 222.42311515 441.81003797 255.13601356 408.98370361 274.50068665 C378.37795989 292.01737195 348.71371684 294.60354687 314.113415 294.55448723 C310.00553666 294.55266948 305.89774259 294.57024337 301.78990173 294.58625793 C290.50972693 294.62689018 279.22956114 294.638612 267.94932556 294.6497879 C257.58231233 294.66036105 247.2154108 294.67742166 236.84846562 294.71788359 C232.78369886 294.73305451 228.71911687 294.74222989 224.65432167 294.73648071 C193.76721454 294.60178625 193.76721454 294.60178625 163.84063721 301.64717102 C162.97116455 301.94236633 162.10169189 302.23756165 161.20587158 302.54170227 C156.88515312 304.04484877 153.18705581 305.7573281 149.27813721 308.14717102 C148.00828786 308.63461049 146.72993188 309.1001757 145.44610596 309.54951477 C141.14098029 311.10557214 137.43588909 313.24707864 133.59063721 315.70967102 C132.89784668 316.15093323 132.20505615 316.59219543 131.49127197 317.04682922 C109.18496821 331.45261039 91.67409539 349.80222323 79.25811768 373.29707336 C78.38781161 374.94011755 77.4928984 376.57007474 76.59454346 378.19795227 C57.14611283 414.72058952 58.03203104 457.14665376 68.27813721 496.14717102 C68.58622314 497.35502258 68.89430908 498.56287415 69.21173096 499.80732727 C71.52900097 508.11860239 75.20715068 515.54360425 79.22247314 523.1374054 C80.24467796 525.08347155 81.2371954 527.04206389 82.22344971 529.00654602 C96.22865912 556.56185775 118.39232579 580.0688519 143.27813721 598.14717102 C144.33645752 598.92447571 145.39477783 599.7017804 146.48516846 600.50263977 C171.2324162 618.09979988 200.00187621 629.75893669 229.52813721 636.27217102 C230.22954834 636.43104797 230.93095947 636.58992493 231.65362549 636.75361633 C248.24741211 640.24820673 264.93591087 640.44613896 281.81744385 640.43769836 C284.23583684 640.44369598 286.65422793 640.45050432 289.07261658 640.45805359 C294.91526522 640.4737751 300.7578648 640.480156 306.60053355 640.48127834 C311.35539825 640.48223534 316.11024985 640.48637772 320.8651104 640.4926796 C334.39636115 640.51024412 347.92758046 640.51952505 361.4588427 640.51801865 C362.18497405 640.51793874 362.9111054 640.51785882 363.65924072 640.51777649 C364.38627488 640.51769473 365.11330904 640.51761297 365.86237454 640.51752873 C377.6512112 640.51671537 389.43992026 640.53587818 401.22872002 640.56405322 C413.38266437 640.59286829 425.53654662 640.60658905 437.69052595 640.60486567 C444.49450973 640.60420513 451.29835938 640.60954964 458.10231209 640.63122177 C464.5006418 640.65068618 470.89868942 640.65067258 477.2970295 640.63618851 C479.63295406 640.63411001 481.96889669 640.63874346 484.3047905 640.65090942 C508.15822761 640.76701722 529.7586268 636.92784075 549.27813721 622.14717102 C550.06704346 621.55420227 550.85594971 620.96123352 551.66876221 620.35029602 C561.65222041 612.18201204 568.53362488 601.00845183 573.27813721 589.14717102 C573.83501221 587.97154602 574.39188721 586.79592102 574.96563721 585.58467102 C581.54505952 568.35285067 580.70961024 545.90406045 573.27813721 529.14717102 C572.98874268 528.48185364 572.69934814 527.81653625 572.40118408 527.13105774 C564.45796856 509.15763535 553.20451306 495.79422228 535.94610596 486.10810852 C531.99737315 484.68587093 528.45550837 484.20766741 524.49468994 485.91670227 C522.56759115 487.01924396 520.73891521 488.21103625 518.90313721 489.45967102 C518.21687256 489.90753967 517.53060791 490.35540833 516.82354736 490.81684875 C515.37119774 491.76615818 513.92318229 492.7221276 512.47930908 493.6842804 C509.60501644 495.59452457 506.70280405 497.45979696 503.800354 499.32685852 C501.64501238 500.71490343 499.49413616 502.10961732 497.34454346 503.50654602 C492.04112002 506.95209806 486.72436674 510.37641224 481.39825439 513.78681946 C479.80126552 514.81151108 478.20582573 515.83861756 476.61114502 516.86689758 C473.64855855 518.77686885 470.68231714 520.68106553 467.71563721 522.58467102 C466.76277832 523.2006012 465.80991943 523.81653137 464.82818604 524.4511261 C463.92350586 525.03015686 463.01882568 525.60918762 462.08673096 526.20576477 C461.2803418 526.72453186 460.47395264 527.24329895 459.64312744 527.77778625 C453.90214403 531.10195018 448.84382472 532.11801201 442.27813721 531.14717102 C435.96838437 528.59478836 431.75223683 524.06739929 428.16876221 518.38935852 C426.00846197 512.95070793 426.34867279 505.59055596 427.86016846 499.99092102 C430.29822371 495.27066792 434.54809555 491.68261161 438.35235596 488.06513977 C440.33961159 486.2893517 440.33961159 486.2893517 441.27813721 484.14717102 C440.23599375 484.15177999 439.19385029 484.15638895 438.12012672 484.16113758 C412.74726043 484.27219949 387.37442571 484.3543302 362.00136757 484.40623188 C349.73106872 484.43199913 337.46093056 484.46712166 325.19073486 484.52436829 C314.4944038 484.5742482 303.79818915 484.60647278 293.10174501 484.61761349 C287.43948541 484.6241244 281.77755878 484.63939657 276.11540604 484.6758213 C270.78184995 484.70985298 265.44876284 484.72020936 260.11510849 484.71270943 C258.16163837 484.71408076 256.20815197 484.72397022 254.254776 484.74319839 C242.53324819 484.85288411 233.65160682 484.68931851 224.40313721 476.64717102 C223.70188721 475.82217102 223.00063721 474.99717102 222.27813721 474.14717102 C221.57688721 473.38404602 220.87563721 472.62092102 220.15313721 471.83467102 C215.00756267 464.45934752 214.16554656 456.96312737 215.27813721 448.14717102 C217.96379392 439.55306952 223.60902014 433.0686536 231.28079224 428.48916626 C239.34881312 424.60151764 248.29740608 425.44513599 257.04815674 425.48774719 C259.04961645 425.47928582 261.05106793 425.46863798 263.05250549 425.45597839 C268.46301336 425.42790991 273.8731237 425.43028997 279.28368235 425.43827224 C284.94651504 425.44140362 290.60922253 425.4163444 296.27200317 425.39431763 C306.98502294 425.35690844 317.69791577 425.34473147 328.41099441 425.34169322 C340.61178074 425.33699902 352.81244019 425.30406402 365.01317048 425.26879537 C390.10147736 425.19690328 415.18973562 425.16035085 440.27813721 425.14717102 C439.16935769 424.0332967 438.05983856 422.92015857 436.95001221 421.80732727 C436.332229 421.18736877 435.7144458 420.56741028 435.07794189 419.92866516 C433.58768397 418.45356857 432.06220914 417.01414714 430.52813721 415.58467102 C425.27265906 409.89123636 424.72345334 404.89235581 424.93829346 397.33857727 C425.52967537 391.7850253 427.08829283 388.12062762 431.25469971 384.36592102 C437.69246307 379.40299072 442.61350651 377.85529037 450.89518738 378.67735291 C455.51959881 379.58909357 459.56483804 381.8177763 463.74298096 383.93232727 C464.74060455 384.42348526 465.73822815 384.91464325 466.76608276 385.42068481 C468.87723644 386.46121062 470.98563282 387.50734732 473.09140015 388.55873108 C476.18466072 390.10057735 479.2865997 391.62298104 482.39312744 393.13789368 C488.65276058 396.19072372 494.90357516 399.26128646 501.15313721 402.33467102 C519.18487847 411.21283523 519.18487847 411.21283523 537.28985596 419.94013977 C556.72837022 429.20429344 575.40293572 438.33752294 591.27813721 453.14717102 C591.7853833 453.61203918 592.29262939 454.07690735 592.81524658 454.55586243 C613.90177797 474.0321739 627.1439574 499.5590768 634.27813721 527.14717102 C634.60040283 528.3408429 634.92266846 529.53451477 635.25469971 530.76435852 C643.31522294 565.79373519 635.0256071 604.88339819 616.27813721 635.14717102 C613.48456479 639.33752964 610.47480799 643.25780272 607.27813721 647.14717102 C606.60742188 647.98393372 606.60742188 647.98393372 605.92315674 648.83760071 C584.12096558 675.97620185 551.09844538 695.53993111 516.18474674 699.69259262 C510.89788337 700.25344802 505.64717388 700.2922878 500.33488464 700.28761292 C499.26607058 700.29058404 498.19725651 700.29355516 497.09605414 700.29661632 C493.53165906 700.30525449 489.96729776 700.30680746 486.40289307 700.30830383 C483.83955311 700.31293569 481.27621384 700.31796085 478.71287537 700.323349 C471.75747296 700.33644495 464.80208159 700.34295085 457.84666896 700.34735966 C453.492017 700.35013184 449.13736723 700.35437111 444.78271675 700.35886383 C432.69463586 700.37105422 420.60655671 700.38135157 408.51846981 700.38473892 C407.74587402 700.38495849 406.97327823 700.38517805 406.17727045 700.38540427 C405.4029481 700.38562255 404.62862576 700.38584083 403.8308391 700.38606572 C402.26208365 700.38650917 400.6933282 700.38695573 399.12457275 700.3874054 C398.34643542 700.38762683 397.56829808 700.38784826 396.76658083 700.38807639 C384.19301263 700.39201391 371.61950275 700.40943688 359.04595702 700.43276492 C346.09561181 700.45659516 333.14529569 700.46894617 320.19492823 700.47010684 C312.94068477 700.47101748 305.68651717 700.476613 298.43229485 700.49492645 C291.59417416 700.51212988 284.75619837 700.51349381 277.91806221 700.50478745 C275.42705525 700.50402452 272.93604016 700.50825965 270.4450531 700.5182457 C250.24784533 700.59437395 230.15365997 699.4487292 210.52813721 694.33467102 C209.49849854 694.07532776 208.46885986 693.8159845 207.40802002 693.54878235 C204.35864648 692.7694823 201.31766443 691.96394237 198.27813721 691.14717102 C197.38610596 690.91127258 196.49407471 690.67537415 195.57501221 690.43232727 C159.52329981 680.76391349 125.90806621 661.9050195 97.27813721 638.14717102 C96.72674072 637.69728821 96.17534424 637.2474054 95.60723877 636.78388977 C81.55307219 625.29458836 68.33215748 612.57288088 57.27813721 598.14717102 C56.50727783 597.19326477 55.73641846 596.23935852 54.94219971 595.25654602 C38.02710502 574.0192978 25.0665683 549.8374883 16.04180908 524.27949524 C15.09927273 521.64774572 14.05670338 519.05877862 13.02813721 516.45967102 C10.55678582 509.62518158 9.21865094 502.45147719 7.74591064 495.34931946 C7.28800203 493.19361188 6.78791071 491.05079343 6.28594971 488.90498352 C5.94232412 487.32069402 5.60690875 485.73460953 5.27813721 484.14717102 C5.0021167 482.83268982 5.0021167 482.83268982 4.72052002 481.49165344 C2.71764055 470.51447155 2.88058869 459.45795222 2.90313721 448.33467102 C2.90401337 447.28470947 2.90488953 446.23474792 2.90579224 445.15296936 C2.94823184 429.76575126 3.46610361 415.1261247 7.27813721 400.14717102 C7.51951416 399.14218567 7.76089111 398.13720032 8.00958252 397.10176086 C17.06449354 359.86272744 35.35046978 326.301574 61.84942627 298.63887024 C63.16478939 297.26551606 64.4681457 295.88068862 65.77032471 294.49482727 C71.90641281 288.12737846 78.59379964 282.70586437 85.63653564 277.39179993 C87.06359014 276.30983625 88.47328499 275.20505002 89.87969971 274.09638977 C112.51395766 256.74345867 139.71002063 245.33048636 167.34063721 238.89717102 C167.97501709 238.74594788 168.60939697 238.59472473 169.26300049 238.43891907 C187.44617528 234.48382173 205.9395487 234.88603881 224.42997169 234.93390656 C229.5157748 234.94647831 234.60144007 234.93924065 239.6872406 234.92848206 C254.13562874 234.90026214 268.58389358 234.88750237 283.0322876 234.91719055 C291.04337269 234.93348622 299.05415031 234.92805095 307.06520385 234.89939427 C311.28283183 234.88525142 315.49981871 234.88174873 319.71741676 234.90561676 C346.99717826 235.05126933 371.81027363 233.02614567 393.27813721 214.14717102 C394.00387939 213.5155304 394.72962158 212.88388977 395.47735596 212.23310852 C413.10533457 195.80493997 421.83439936 172.93608793 422.72955322 149.20503235 C423.04670057 130.87582791 418.36661186 114.94913015 409.27813721 99.14717102 C408.71094971 98.13010071 408.14376221 97.1130304 407.55938721 96.06513977 C401.28267765 85.48059417 392.61023667 77.67594922 382.27813721 71.14717102 C381.34098877 70.53873352 380.40384033 69.93029602 379.43829346 69.30342102 C363.91693358 59.67650662 347.17202033 57.83601579 329.23143005 57.87974548 C327.75493254 57.87600015 326.27843701 57.87139515 324.80194455 57.86601484 C320.78041933 57.85387885 316.75897788 57.85403408 312.73743856 57.85640359 C308.38625098 57.85681415 304.03508942 57.8457501 299.68391418 57.83628845 C291.17321829 57.81973018 282.66255012 57.81418129 274.15183946 57.8130637 C267.23008597 57.81211095 260.30834157 57.80798936 253.38659096 57.80166245 C233.73360771 57.78406567 214.08064624 57.77482135 194.42765506 57.77632339 C192.84096916 57.77644326 192.84096916 57.77644326 191.222229 57.77656555 C190.1631374 57.77664731 189.1040458 57.77672907 188.01286051 57.77681331 C170.84936405 57.7776262 153.68595535 57.75848365 136.52248427 57.73028882 C118.8711955 57.70152285 101.2199495 57.6877505 83.56863672 57.68947637 C73.66992342 57.69013889 63.77130219 57.68470681 53.87261009 57.66312027 C45.44560002 57.64485975 37.01872377 57.64060117 28.59170242 57.65413912 C24.29799623 57.66064369 20.00454641 57.66087739 15.71086502 57.64343262 C11.7696066 57.62758525 7.82880536 57.63068271 3.88755731 57.64800088 C2.47245985 57.65104531 1.05732726 57.64753657 -0.3577287 57.63628073 C-13.27746984 57.54043375 -26.38405146 59.60242793 -37.90936279 65.77217102 C-38.88788208 66.28094788 -38.88788208 66.28094788 -39.88616943 66.80000305 C-57.75125806 76.42451267 -71.98002503 91.61967279 -78.59686279 111.02217102 C-78.7660807 111.65288951 -78.93529862 112.283608 -79.10964434 112.93343918 C-79.52274156 114.42716493 -79.97889489 115.90955289 -80.47401635 117.37813066 C-82.50950717 123.50498428 -83.15492875 128.93871128 -83.1189394 135.36931896 C-83.12862565 136.84476829 -83.12862565 136.84476829 -83.13850757 138.35002467 C-83.15643025 141.63604821 -83.15317379 144.92169799 -83.1499176 148.20776367 C-83.15838981 150.59141993 -83.16814324 152.97507193 -83.17906588 155.35871822 C-83.20243167 161.21598473 -83.21185115 167.07317922 -83.21524296 172.93048225 C-83.22004673 179.9493469 -83.2420994 186.96813159 -83.26435089 193.9869588 C-83.31721487 210.94310718 -83.33957398 227.89925492 -83.35797799 244.85546953 C-83.36686381 252.87669194 -83.37929057 260.89790775 -83.39205328 268.91912479 C-83.43559431 296.3794644 -83.47203676 323.83980205 -83.48637867 351.30017376 C-83.48729669 353.02259755 -83.48821614 354.74502134 -83.48913703 356.46744512 C-83.48959172 357.32159441 -83.4900464 358.17574369 -83.49051487 359.05577628 C-83.4928205 363.38319759 -83.49514775 367.71061888 -83.49749756 372.03804016 C-83.49795649 372.89682022 -83.49841542 373.75560028 -83.49888826 374.64040397 C-83.51405603 402.51031973 -83.56937688 430.3799564 -83.64843423 458.24975927 C-83.73188149 487.72093281 -83.77907185 517.19194519 -83.78475875 546.66323978 C-83.7855192 549.89662577 -83.78642962 553.13001168 -83.78745079 556.3633976 C-83.78768552 557.15953846 -83.78792025 557.95567932 -83.78816209 558.77594567 C-83.79279841 571.59654745 -83.83052337 584.41684833 -83.88006675 597.23734615 C-83.92899866 610.11425358 -83.94103563 622.9907844 -83.91541616 635.86776289 C-83.90126618 643.5208568 -83.91497865 651.17272175 -83.96842784 658.82564849 C-84.00522848 664.53468733 -83.98998501 670.24262933 -83.95421358 675.95163093 C-83.94788488 678.26505313 -83.95859129 680.57859524 -83.98773096 682.89184257 C-84.66530081 694.60231832 -84.66530081 694.60231832 -80.50884187 705.01262629 C-77.95670389 706.82405893 -75.62022838 708.00167264 -72.72186279 709.14717102 C-61.97819119 718.025082 -54.71443353 730.27115706 -52.72186279 744.14717102 C-51.63560367 755.65391151 -52.18057253 766.39148354 -56.72186279 777.14717102 C-57.07248779 778.01342102 -57.42311279 778.87967102 -57.78436279 779.77217102 C-64.06488528 793.72888767 -75.65126517 804.32126738 -89.72186279 810.14717102 C-90.53268311 810.51842102 -91.34350342 810.88967102 -92.17889404 811.27217102 C-104.68806328 816.3108294 -121.17426458 816.04110229 -133.72186279 811.14717102 C-150.69194008 803.47576622 -161.91010448 791.46039006 -168.72186279 774.14717102 C-169.23233154 772.96961243 -169.23233154 772.96961243 -169.75311279 771.76826477 C-171.87495095 766.11985301 -171.99409437 760.5501498 -172.03436279 754.58467102 C-172.04000244 753.79302551 -172.04564209 753.00138 -172.05145264 752.18574524 C-171.85284141 735.95011911 -164.65487536 722.44219815 -153.72576904 710.79560852 C-152.05018387 709.1670652 -150.55497424 708.05482317 -148.49895012 706.91712131 C-143.76736309 704.37260479 -143.76736309 704.37260479 -140.88723947 700.0492235 C-140.57107907 697.47746749 -140.54165977 695.03573487 -140.6071949 692.44514751 C-140.59602072 691.46912597 -140.58484653 690.49310443 -140.57333374 689.48750648 C-140.54674577 686.20195951 -140.58454004 682.92028623 -140.62179565 679.6348877 C-140.6158905 677.26180263 -140.60602587 674.88872465 -140.59253299 672.5156706 C-140.57221191 667.34851673 -140.57986484 662.18217714 -140.61201286 657.01511574 C-140.65964918 649.33110622 -140.65566042 641.64773098 -140.64093016 633.9636188 C-140.61754787 621.03372091 -140.63562246 608.10419261 -140.67679214 595.17435265 C-140.71737044 582.35980212 -140.73802948 569.54546116 -140.73260117 556.7308445 C-140.73226885 555.93380196 -140.73193653 555.13675943 -140.73159415 554.31556409 C-140.72978216 550.26739499 -140.72758261 546.21922619 -140.72521292 542.17105738 C-140.70891026 513.48309731 -140.73204608 484.79529462 -140.78045654 456.1073761 C-140.79214396 449.15518715 -140.80378865 442.20299814 -140.81518555 435.25080872 C-140.81659961 434.38856992 -140.81801368 433.52633113 -140.8194706 432.63796389 C-140.85193802 412.63233387 -140.86865413 392.62669939 -140.88104248 372.62104797 C-140.88158135 371.76457895 -140.88212022 370.90810992 -140.88267542 370.02568728 C-140.8949034 350.45931918 -140.90267522 330.89295281 -140.90485954 311.326581 C-140.90495768 310.50337116 -140.90505582 309.68016131 -140.90515693 308.83200571 C-140.90603318 301.42502527 -140.90688543 294.01804485 -140.90699647 286.61106435 C-140.90736791 267.36718032 -140.92104004 248.12341017 -140.95833533 228.87956063 C-140.98154132 216.79959107 -140.99491077 204.71963622 -141.00057836 192.63964572 C-141.00458466 185.00241627 -141.01727407 177.36531173 -141.04232465 169.7281218 C-141.06017442 164.01301259 -141.06228246 158.29798106 -141.05854176 152.58284918 C-141.05951236 150.27990659 -141.06555834 147.97695898 -141.07735814 145.67404642 C-141.15896676 129.01483413 -140.0658467 113.43859954 -134.53436279 97.58467102 C-134.08153931 96.26463074 -134.08153931 96.26463074 -133.61956787 94.91792297 C-130.67845386 86.60273546 -127.04910662 78.82359636 -122.72186279 71.14717102 C-122.3575415 70.48910461 -121.99322021 69.83103821 -121.61785889 69.1530304 C-115.7602095 58.71365526 -108.67680762 50.16201827 -100.2477417 41.6920929 C-98.99786872 40.4266215 -97.78238715 39.12726668 -96.57733154 37.81904602 C-72.15126703 11.63685922 -34.83440448 -0.0070289 0 0 Z " fill="#0B1017" transform="translate(429.72186279296875,205.8528289794922)"/>
</svg>
